<mxfile host="65bd71144e">
    <diagram name="Page-1" id="qrALxvsxDObh7wOZHiiR">
        <mxGraphModel dx="1981" dy="866" grid="1" gridSize="10" guides="1" tooltips="1" connect="1" arrows="1" fold="1" page="1" pageScale="1" pageWidth="850" pageHeight="1100" background="#FFFFFF" math="0" shadow="0">
            <root>
                <mxCell id="0"/>
                <mxCell id="1" parent="0"/>
                <mxCell id="63" value="&lt;font style=&quot;background-color: rgb(255, 255, 255);&quot; color=&quot;#000000&quot;&gt;Namecheap DNS&lt;/font&gt;" style="image;sketch=0;aspect=fixed;html=1;points=[];align=center;fontSize=12;image=img/lib/mscae/DNS.svg;" parent="1" vertex="1">
                    <mxGeometry x="400" y="10" width="50" height="50" as="geometry"/>
                </mxCell>
                <mxCell id="qu0P8Vnk07hLF424o6CE-2" value="cloudflare" parent="0"/>
                <mxCell id="55" value="" style="rounded=0;whiteSpace=wrap;html=1;labelBackgroundColor=none;fontColor=#000000;fillColor=#fa6800;strokeColor=#C73500;" parent="qu0P8Vnk07hLF424o6CE-2" vertex="1">
                    <mxGeometry x="250" y="140" width="350" height="150" as="geometry"/>
                </mxCell>
                <mxCell id="56" style="edgeStyle=none;html=1;exitX=0;exitY=0.25;exitDx=0;exitDy=0;entryX=0.25;entryY=0;entryDx=0;entryDy=0;strokeColor=#000000;fontColor=#000000;" parent="qu0P8Vnk07hLF424o6CE-2" source="61" edge="1">
                    <mxGeometry relative="1" as="geometry">
                        <mxPoint x="-175" y="290" as="targetPoint"/>
                        <Array as="points">
                            <mxPoint x="-175" y="178"/>
                        </Array>
                    </mxGeometry>
                </mxCell>
                <mxCell id="57" value="&lt;font style=&quot;font-size: 14px; background-color: rgb(255, 255, 255);&quot;&gt;domain2&lt;/font&gt;" style="edgeLabel;html=1;align=center;verticalAlign=middle;resizable=0;points=[];fontColor=#000000;" parent="56" vertex="1" connectable="0">
                    <mxGeometry x="-0.3557" y="-3" relative="1" as="geometry">
                        <mxPoint as="offset"/>
                    </mxGeometry>
                </mxCell>
                <mxCell id="58" style="edgeStyle=none;html=1;exitX=0;exitY=0.5;exitDx=0;exitDy=0;entryX=0.25;entryY=0;entryDx=0;entryDy=0;strokeColor=#000000;fontSize=14;fontColor=#000000;" parent="qu0P8Vnk07hLF424o6CE-2" source="61" edge="1">
                    <mxGeometry relative="1" as="geometry">
                        <mxPoint x="-112.5" y="290" as="targetPoint"/>
                        <Array as="points">
                            <mxPoint x="-112" y="215"/>
                        </Array>
                    </mxGeometry>
                </mxCell>
                <mxCell id="59" value="&lt;span style=&quot;background-color: rgb(255, 255, 255);&quot;&gt;domain4&lt;/span&gt;" style="edgeLabel;html=1;align=center;verticalAlign=middle;resizable=0;points=[];fontSize=14;fontColor=#000000;" parent="58" vertex="1" connectable="0">
                    <mxGeometry x="-0.4057" relative="1" as="geometry">
                        <mxPoint as="offset"/>
                    </mxGeometry>
                </mxCell>
                <mxCell id="60" style="edgeStyle=none;html=1;entryX=0.5;entryY=0;entryDx=0;entryDy=0;strokeColor=#000000;" parent="qu0P8Vnk07hLF424o6CE-2" target="61" edge="1">
                    <mxGeometry relative="1" as="geometry">
                        <mxPoint x="425" y="60" as="sourcePoint"/>
                    </mxGeometry>
                </mxCell>
                <mxCell id="61" value="Cloudflare" style="swimlane;whiteSpace=wrap;html=1;" parent="qu0P8Vnk07hLF424o6CE-2" vertex="1">
                    <mxGeometry x="250" y="140" width="350" height="150" as="geometry"/>
                </mxCell>
                <mxCell id="62" value="&lt;span style=&quot;&quot;&gt;&lt;font color=&quot;#000000&quot;&gt;Subdomain CNAME records, domain pointers, and network security. WAF enabled, with custom rulesets to block countries, ips, &amp;amp; UAs matching expressions.&lt;/font&gt;&lt;/span&gt;" style="text;html=1;align=center;verticalAlign=middle;whiteSpace=wrap;rounded=0;" parent="61" vertex="1">
                    <mxGeometry x="10" y="30" width="330" height="110" as="geometry"/>
                </mxCell>
                <mxCell id="78" style="edgeStyle=none;html=1;entryX=0;entryY=0.25;entryDx=0;entryDy=0;strokeColor=#000000;fontSize=16;fontColor=#FFFFFF;" parent="qu0P8Vnk07hLF424o6CE-2" edge="1">
                    <mxGeometry relative="1" as="geometry">
                        <mxPoint x="600" y="185" as="sourcePoint"/>
                        <mxPoint x="780" y="185" as="targetPoint"/>
                    </mxGeometry>
                </mxCell>
                <mxCell id="79" value="&lt;font style=&quot;background-color: rgb(255, 255, 255);&quot; color=&quot;#000000&quot;&gt;domain5&lt;/font&gt;" style="edgeLabel;html=1;align=center;verticalAlign=middle;resizable=0;points=[];fontSize=16;fontColor=#FFFFFF;" parent="78" vertex="1" connectable="0">
                    <mxGeometry x="-0.3778" y="4" relative="1" as="geometry">
                        <mxPoint as="offset"/>
                    </mxGeometry>
                </mxCell>
                <mxCell id="70" value="garlicshop" parent="0"/>
                <mxCell id="71" value="" style="group" parent="70" vertex="1" connectable="0">
                    <mxGeometry x="780" y="140" width="340" height="180" as="geometry"/>
                </mxCell>
                <mxCell id="72" value="" style="rounded=0;whiteSpace=wrap;html=1;labelBackgroundColor=#647687;fontSize=16;fontColor=#FFFFFF;fillColor=#647687;" parent="71" vertex="1">
                    <mxGeometry y="20" width="340" height="160" as="geometry"/>
                </mxCell>
                <mxCell id="73" value="&lt;font color=&quot;#ffffff&quot; style=&quot;background-color: rgb(100, 118, 135);&quot;&gt;HostMySite&lt;/font&gt;" style="verticalLabelPosition=bottom;html=1;verticalAlign=top;align=center;shape=mxgraph.azure.server_rack;labelBackgroundColor=#FFFFFF;fillColor=#ffff88;strokeColor=#36393d;" parent="71" vertex="1">
                    <mxGeometry x="20" y="30" width="30" height="30" as="geometry"/>
                </mxCell>
                <mxCell id="74" value="&lt;span style=&quot;background-color: rgb(100, 118, 135);&quot;&gt;Garlic Shop&lt;br&gt;&lt;/span&gt;" style="swimlane;whiteSpace=wrap;html=1;rounded=0;labelBackgroundColor=#FFFFFF;fontSize=16;fontColor=#ffffff;fillColor=#647687;strokeColor=#314354;" parent="71" vertex="1">
                    <mxGeometry width="340" height="180" as="geometry"/>
                </mxCell>
                <mxCell id="75" value="I maintain a website for a family friend who's web developer passed away. The site is entirely custom Javascript &amp;amp; HTML, served via Apache. I maintain SSL, small tweaks to the store page, &amp;amp; shop inventory for the site." style="text;html=1;strokeColor=none;fillColor=none;align=center;verticalAlign=middle;whiteSpace=wrap;rounded=0;labelBackgroundColor=#647687;fontSize=16;fontColor=#FFFFFF;" parent="74" vertex="1">
                    <mxGeometry x="80" y="20" width="250" height="160" as="geometry"/>
                </mxCell>
                <mxCell id="80" value="cloud" parent="0"/>
                <mxCell id="81" value="&lt;font color=&quot;#ffffff&quot;&gt;IONOS Server&lt;/font&gt;" style="swimlane;horizontal=0;whiteSpace=wrap;html=1;labelBackgroundColor=none;fillColor=#007FFF;" parent="80" vertex="1">
                    <mxGeometry x="-270" y="290" width="380" height="200" as="geometry"/>
                </mxCell>
                <mxCell id="82" value="" style="rounded=0;whiteSpace=wrap;html=1;labelBackgroundColor=none;fontColor=#FFFFFF;fillColor=#66B2FF;" parent="81" vertex="1">
                    <mxGeometry x="20" width="360" height="200" as="geometry"/>
                </mxCell>
                <mxCell id="83" value="Debian VPS with Docker installed. Runs NGINX reverse proxy. Only routed to home LAN via Tailscale." style="text;html=1;strokeColor=none;fillColor=none;align=center;verticalAlign=middle;whiteSpace=wrap;rounded=0;labelBackgroundColor=none;fontColor=#000000;" parent="81" vertex="1">
                    <mxGeometry x="85" width="290" height="50" as="geometry"/>
                </mxCell>
                <mxCell id="84" value="&lt;font color=&quot;#000000&quot;&gt;IONOS&lt;/font&gt;" style="verticalLabelPosition=bottom;html=1;verticalAlign=top;align=center;shape=mxgraph.azure.server_rack;labelBackgroundColor=#FFFFFF;fillColor=#647687;fontColor=#ffffff;strokeColor=#314354;" parent="81" vertex="1">
                    <mxGeometry x="35" y="10" width="30" height="30" as="geometry"/>
                </mxCell>
                <mxCell id="85" value="" style="endArrow=none;html=1;strokeColor=#000000;fontColor=#000000;exitX=0.003;exitY=0.36;exitDx=0;exitDy=0;exitPerimeter=0;entryX=1.002;entryY=0.362;entryDx=0;entryDy=0;entryPerimeter=0;" parent="81" source="82" target="82" edge="1">
                    <mxGeometry width="50" height="50" relative="1" as="geometry">
                        <mxPoint x="430" y="40" as="sourcePoint"/>
                        <mxPoint x="330" y="70" as="targetPoint"/>
                    </mxGeometry>
                </mxCell>
                <mxCell id="86" value="watchtower" style="sketch=0;aspect=fixed;html=1;points=[];align=center;image;fontSize=12;image=img/lib/mscae/Docker.svg;rounded=0;labelBackgroundColor=none;fontColor=#000000;fillColor=#66B2FF;" parent="81" vertex="1">
                    <mxGeometry x="35" y="79.5" width="50" height="41" as="geometry"/>
                </mxCell>
                <mxCell id="87" value="NGINX proxy manager" style="sketch=0;aspect=fixed;html=1;points=[];align=center;image;fontSize=12;image=img/lib/mscae/Docker.svg;rounded=0;labelBackgroundColor=none;fontColor=#000000;fillColor=#66B2FF;" parent="81" vertex="1">
                    <mxGeometry x="165" y="79.5" width="50" height="41" as="geometry"/>
                </mxCell>
                <mxCell id="88" value="Authentik" style="sketch=0;aspect=fixed;html=1;points=[];align=center;image;fontSize=12;image=img/lib/mscae/Docker.svg;rounded=0;labelBackgroundColor=none;fontColor=#000000;fillColor=#66B2FF;" parent="81" vertex="1">
                    <mxGeometry x="280" y="79.5" width="50" height="41" as="geometry"/>
                </mxCell>
                <mxCell id="117" style="edgeStyle=none;html=1;entryX=1;entryY=0.75;entryDx=0;entryDy=0;strokeColor=#000000;fontSize=14;fontColor=#000000;exitX=0.509;exitY=0.996;exitDx=0;exitDy=0;exitPerimeter=0;" parent="80" source="118" edge="1">
                    <mxGeometry relative="1" as="geometry">
                        <mxPoint x="110" y="440" as="targetPoint"/>
                        <Array as="points">
                            <mxPoint x="196" y="440"/>
                        </Array>
                    </mxGeometry>
                </mxCell>
                <mxCell id="118" value="Entra ID for Authentik SSO" style="aspect=fixed;html=1;points=[];align=center;image;fontSize=12;image=img/lib/azure2/identity/Azure_AD_Domain_Services.svg;rounded=0;labelBackgroundColor=#FFFFFF;fontColor=#000000;fillColor=#6D8764;" parent="80" vertex="1">
                    <mxGeometry x="160" y="340" width="70" height="64" as="geometry"/>
                </mxCell>
                <mxCell id="119" style="edgeStyle=none;html=1;exitX=1;exitY=0.5;exitDx=0;exitDy=0;entryX=0.568;entryY=-0.004;entryDx=0;entryDy=0;entryPerimeter=0;strokeColor=#000000;fontSize=14;fontColor=#000000;" parent="80" target="118" edge="1">
                    <mxGeometry relative="1" as="geometry">
                        <mxPoint x="105" y="315" as="sourcePoint"/>
                        <Array as="points">
                            <mxPoint x="200" y="315"/>
                        </Array>
                    </mxGeometry>
                </mxCell>
                <mxCell id="89" value="LAN" parent="0"/>
                <mxCell id="130" style="edgeStyle=none;html=1;exitX=0.75;exitY=1;exitDx=0;exitDy=0;entryX=0.511;entryY=-0.029;entryDx=0;entryDy=0;entryPerimeter=0;strokeColor=#000000;fontColor=#000000;" edge="1" parent="89" source="90" target="129">
                    <mxGeometry relative="1" as="geometry"/>
                </mxCell>
                <mxCell id="131" value="&lt;span style=&quot;background-color: rgb(255, 255, 255);&quot;&gt;callisto&lt;/span&gt;" style="edgeLabel;html=1;align=center;verticalAlign=middle;resizable=0;points=[];fontColor=#000000;" vertex="1" connectable="0" parent="130">
                    <mxGeometry x="-0.5338" y="-2" relative="1" as="geometry">
                        <mxPoint x="1" y="9" as="offset"/>
                    </mxGeometry>
                </mxCell>
                <mxCell id="90" value="&lt;font style=&quot;background-color: rgb(109, 135, 100);&quot; color=&quot;#000000&quot;&gt;🏠 HOME LAN&lt;/font&gt;" style="swimlane;whiteSpace=wrap;html=1;rounded=0;labelBackgroundColor=#FFFFFF;fontSize=14;fontColor=#ffffff;fillColor=#6D8764;strokeColor=#3A5431;startSize=23;" parent="89" vertex="1">
                    <mxGeometry x="454" y="630" width="630" height="270" as="geometry"/>
                </mxCell>
                <mxCell id="91" value="" style="rounded=0;whiteSpace=wrap;html=1;labelBackgroundColor=#6D8764;fontSize=14;fontColor=#000000;fillColor=#6D8764;" parent="90" vertex="1">
                    <mxGeometry y="20" width="630" height="250" as="geometry"/>
                </mxCell>
                <mxCell id="92" value="&lt;span style=&quot;background-color: rgb(109, 135, 100);&quot;&gt;&lt;font style=&quot;font-size: 14px;&quot;&gt;Misc. Raspberry Pis&lt;/font&gt;&lt;/span&gt;" style="sketch=0;outlineConnect=0;fillColor=#a20025;strokeColor=#6F0000;dashed=0;verticalLabelPosition=bottom;verticalAlign=top;align=center;html=1;fontSize=12;fontStyle=0;aspect=fixed;pointerEvents=1;shape=mxgraph.aws4.hardware_board;rounded=0;labelBackgroundColor=#FFFFFF;fontColor=#ffffff;" parent="90" vertex="1">
                    <mxGeometry x="61" y="155" width="40" height="40" as="geometry"/>
                </mxCell>
                <mxCell id="93" value="I host most of my services on machines at my home. The direct routes to my home are proxied through Cloudflare, and are only used for SSH to my self-hosted git server. The Cloudflare WAF &amp;amp; Unifi USG firewall monitor &amp;amp; block traffic. All other service traffic goes over the Tailscale overlay network, never visible on the clearnet." style="text;html=1;strokeColor=none;fillColor=none;align=center;verticalAlign=middle;whiteSpace=wrap;rounded=0;labelBackgroundColor=#6D8764;fontSize=14;fontColor=#FFFFFF;" parent="90" vertex="1">
                    <mxGeometry x="11" y="30" width="609" height="80" as="geometry"/>
                </mxCell>
                <mxCell id="94" value="" style="endArrow=none;html=1;strokeColor=#000000;fontSize=14;fontColor=#FFFFFF;exitX=-0.001;exitY=0.366;exitDx=0;exitDy=0;entryX=1.002;entryY=0.365;entryDx=0;entryDy=0;exitPerimeter=0;entryPerimeter=0;" parent="90" source="91" target="91" edge="1">
                    <mxGeometry width="50" height="50" relative="1" as="geometry">
                        <mxPoint x="141" y="40" as="sourcePoint"/>
                        <mxPoint x="499" y="123" as="targetPoint"/>
                    </mxGeometry>
                </mxCell>
                <mxCell id="95" value="&lt;font style=&quot;background-color: rgb(109, 135, 100);&quot;&gt;mediasrv&lt;/font&gt;" style="verticalLabelPosition=bottom;html=1;verticalAlign=top;align=center;shape=mxgraph.azure.server_rack;labelBackgroundColor=#FFFFFF;fillColor=#1ba1e2;fontColor=#ffffff;strokeColor=#006EAF;" parent="90" vertex="1">
                    <mxGeometry x="176" y="155" width="54" height="50" as="geometry"/>
                </mxCell>
                <mxCell id="96" value="&lt;font style=&quot;background-color: rgb(109, 135, 100);&quot;&gt;ibmoxie&lt;/font&gt;" style="verticalLabelPosition=bottom;html=1;verticalAlign=top;align=center;shape=mxgraph.azure.server_rack;labelBackgroundColor=#FFFFFF;fillColor=#1ba1e2;fontColor=#ffffff;strokeColor=#006EAF;" parent="90" vertex="1">
                    <mxGeometry x="306" y="155" width="54" height="50" as="geometry"/>
                </mxCell>
                <mxCell id="97" value="&lt;font style=&quot;background-color: rgb(109, 135, 100);&quot;&gt;callisto&lt;/font&gt;" style="verticalLabelPosition=bottom;html=1;verticalAlign=top;align=center;shape=mxgraph.azure.server_rack;labelBackgroundColor=#FFFFFF;fillColor=#1ba1e2;fontColor=#ffffff;strokeColor=#006EAF;" parent="90" vertex="1">
                    <mxGeometry x="436" y="155" width="54" height="50" as="geometry"/>
                </mxCell>
                <mxCell id="98" value="&lt;font style=&quot;background-color: rgb(109, 135, 100);&quot;&gt;cybernex&lt;/font&gt;" style="verticalLabelPosition=bottom;html=1;verticalAlign=top;align=center;shape=mxgraph.azure.server_rack;labelBackgroundColor=#FFFFFF;fillColor=#1ba1e2;fontColor=#ffffff;strokeColor=#006EAF;" parent="90" vertex="1">
                    <mxGeometry x="546" y="155" width="54" height="50" as="geometry"/>
                </mxCell>
                <mxCell id="99" style="edgeStyle=none;html=1;strokeColor=#000000;fontSize=16;fontColor=#000000;" parent="89" source="100" target="102" edge="1">
                    <mxGeometry relative="1" as="geometry"/>
                </mxCell>
                <mxCell id="100" value="&lt;font style=&quot;background-color: rgb(255, 255, 255); font-size: 16px;&quot; color=&quot;#000000&quot;&gt;AT&amp;amp;T Router&lt;/font&gt;" style="sketch=0;outlineConnect=0;fontColor=#232F3E;gradientColor=none;fillColor=#4D27AA;strokeColor=none;dashed=0;verticalLabelPosition=bottom;verticalAlign=top;align=center;html=1;fontSize=12;fontStyle=0;aspect=fixed;pointerEvents=1;shape=mxgraph.aws4.gateway;rounded=0;labelBackgroundColor=#6D8764;" parent="89" vertex="1">
                    <mxGeometry x="600" y="472" width="76" height="78" as="geometry"/>
                </mxCell>
                <mxCell id="101" style="edgeStyle=none;html=1;entryX=0.5;entryY=0;entryDx=0;entryDy=0;strokeColor=#000000;fontSize=16;fontColor=#000000;" parent="89" source="102" target="90" edge="1">
                    <mxGeometry relative="1" as="geometry"/>
                </mxCell>
                <mxCell id="102" value="&lt;font style=&quot;font-size: 16px;&quot;&gt;Unifi USG&lt;/font&gt;" style="sketch=0;outlineConnect=0;fontColor=#232F3E;gradientColor=none;fillColor=#4D27AA;strokeColor=none;dashed=0;verticalLabelPosition=bottom;verticalAlign=top;align=center;html=1;fontSize=12;fontStyle=0;aspect=fixed;pointerEvents=1;shape=mxgraph.aws4.customer_gateway;rounded=0;labelBackgroundColor=#FFFFFF;" parent="89" vertex="1">
                    <mxGeometry x="730" y="473" width="78" height="78" as="geometry"/>
                </mxCell>
                <mxCell id="126" value="&lt;font style=&quot;background-color: rgb(255, 255, 255);&quot; color=&quot;#000000&quot;&gt;Proxmox Hypervisor&lt;/font&gt;" style="pointerEvents=1;shadow=0;dashed=0;html=1;strokeColor=none;fillColor=#4495D1;labelPosition=center;verticalLabelPosition=bottom;verticalAlign=top;align=center;outlineConnect=0;shape=mxgraph.veeam.virtual_host;" vertex="1" parent="89">
                    <mxGeometry x="719" y="950" width="108" height="104" as="geometry"/>
                </mxCell>
                <mxCell id="127" style="edgeStyle=none;html=1;exitX=0.5;exitY=1;exitDx=0;exitDy=0;entryX=0.468;entryY=-0.01;entryDx=0;entryDy=0;entryPerimeter=0;fontColor=#000000;strokeColor=#000000;" edge="1" parent="89" target="126">
                    <mxGeometry relative="1" as="geometry">
                        <mxPoint x="769" y="900.0000000000002" as="sourcePoint"/>
                    </mxGeometry>
                </mxCell>
                <mxCell id="128" value="&lt;span style=&quot;background-color: rgb(255, 255, 255);&quot;&gt;ibmoxie&lt;/span&gt;" style="edgeLabel;html=1;align=center;verticalAlign=middle;resizable=0;points=[];fontColor=#000000;" vertex="1" connectable="0" parent="127">
                    <mxGeometry x="-0.2441" relative="1" as="geometry">
                        <mxPoint as="offset"/>
                    </mxGeometry>
                </mxCell>
                <mxCell id="129" value="Docker Containers" style="aspect=fixed;html=1;points=[];align=center;image;fontSize=12;image=img/lib/azure2/compute/Container_Services_Deprecated.svg;labelBackgroundColor=#FFFFFF;fontColor=#000000;" vertex="1" parent="89">
                    <mxGeometry x="874" y="950" width="102" height="90" as="geometry"/>
                </mxCell>
                <mxCell id="139" style="edgeStyle=none;html=1;exitX=0.5;exitY=1;exitDx=0;exitDy=0;strokeColor=#000000;fontSize=16;fontColor=#000000;" edge="1" parent="89">
                    <mxGeometry relative="1" as="geometry">
                        <mxPoint x="425" y="290" as="sourcePoint"/>
                        <mxPoint x="600" y="510.20833333333303" as="targetPoint"/>
                        <Array as="points">
                            <mxPoint x="425" y="510"/>
                            <mxPoint x="590" y="510"/>
                        </Array>
                    </mxGeometry>
                </mxCell>
                <mxCell id="140" value="&lt;span style=&quot;background-color: rgb(255, 255, 255);&quot;&gt;domain1&lt;/span&gt;" style="edgeLabel;html=1;align=center;verticalAlign=middle;resizable=0;points=[];fontSize=16;fontColor=#000000;" vertex="1" connectable="0" parent="139">
                    <mxGeometry x="-0.564" y="2" relative="1" as="geometry">
                        <mxPoint as="offset"/>
                    </mxGeometry>
                </mxCell>
                <mxCell id="141" style="edgeStyle=none;html=1;exitX=0.75;exitY=1;exitDx=0;exitDy=0;strokeColor=#000000;fontSize=16;fontColor=#000000;" edge="1" parent="89">
                    <mxGeometry relative="1" as="geometry">
                        <mxPoint x="512.5" y="290" as="sourcePoint"/>
                        <mxPoint x="600" y="510" as="targetPoint"/>
                        <Array as="points">
                            <mxPoint x="513" y="510"/>
                        </Array>
                    </mxGeometry>
                </mxCell>
                <mxCell id="142" value="&lt;span style=&quot;background-color: rgb(255, 255, 255);&quot;&gt;domain3&lt;/span&gt;" style="edgeLabel;html=1;align=center;verticalAlign=middle;resizable=0;points=[];fontSize=16;fontColor=#000000;" vertex="1" connectable="0" parent="141">
                    <mxGeometry x="-0.4301" relative="1" as="geometry">
                        <mxPoint as="offset"/>
                    </mxGeometry>
                </mxCell>
                <mxCell id="159" style="edgeStyle=none;html=1;strokeColor=#000000;fontColor=#000000;exitX=1.002;exitY=0.648;exitDx=0;exitDy=0;exitPerimeter=0;" edge="1" parent="89" target="161">
                    <mxGeometry relative="1" as="geometry">
                        <mxPoint x="1085.2600000000002" y="812" as="sourcePoint"/>
                        <mxPoint x="1169" y="812" as="targetPoint"/>
                    </mxGeometry>
                </mxCell>
                <mxCell id="160" value="&lt;span style=&quot;background-color: rgb(255, 255, 255);&quot;&gt;cybernex&lt;/span&gt;" style="edgeLabel;html=1;align=center;verticalAlign=middle;resizable=0;points=[];fontColor=#000000;" vertex="1" connectable="0" parent="159">
                    <mxGeometry x="-0.1493" y="2" relative="1" as="geometry">
                        <mxPoint as="offset"/>
                    </mxGeometry>
                </mxCell>
                <mxCell id="161" value="&lt;font style=&quot;background-color: rgb(255, 255, 255);&quot; color=&quot;#000000&quot;&gt;Ansible&lt;/font&gt;" style="sketch=0;outlineConnect=0;fontColor=#232F3E;gradientColor=none;fillColor=#B0084D;strokeColor=none;dashed=0;verticalLabelPosition=bottom;verticalAlign=top;align=center;html=1;fontSize=12;fontStyle=0;aspect=fixed;pointerEvents=1;shape=mxgraph.aws4.automation;labelBackgroundColor=#9C0000;" vertex="1" parent="89">
                    <mxGeometry x="1210" y="773" width="78" height="78" as="geometry"/>
                </mxCell>
                <mxCell id="162" value="Unifi Controller Container" style="sketch=0;aspect=fixed;html=1;points=[];align=center;image;fontSize=12;image=img/lib/mscae/Docker.svg;labelBackgroundColor=#FFFFFF;fontColor=#000000;" vertex="1" parent="89">
                    <mxGeometry x="1200.22" y="660" width="97.56" height="80" as="geometry"/>
                </mxCell>
                <mxCell id="163" style="edgeStyle=none;html=1;strokeColor=#000000;fontColor=#000000;exitX=1;exitY=0.5;exitDx=0;exitDy=0;" edge="1" parent="89" target="162">
                    <mxGeometry relative="1" as="geometry">
                        <mxPoint x="1084" y="775" as="sourcePoint"/>
                        <Array as="points">
                            <mxPoint x="1150" y="775"/>
                            <mxPoint x="1150" y="700"/>
                        </Array>
                    </mxGeometry>
                </mxCell>
                <mxCell id="164" value="&lt;span style=&quot;background-color: rgb(255, 255, 255);&quot;&gt;cybernex&lt;/span&gt;" style="edgeLabel;html=1;align=center;verticalAlign=middle;resizable=0;points=[];fontColor=#000000;" vertex="1" connectable="0" parent="163">
                    <mxGeometry x="-0.8044" relative="1" as="geometry">
                        <mxPoint x="17" as="offset"/>
                    </mxGeometry>
                </mxCell>
                <mxCell id="108" value="tailscale net" parent="0"/>
                <mxCell id="112" style="edgeStyle=none;html=1;exitX=0.855;exitY=0.145;exitDx=0;exitDy=0;exitPerimeter=0;entryX=0.75;entryY=1;entryDx=0;entryDy=0;strokeColor=#000000;fontSize=14;fontColor=#000000;" parent="108" source="111" target="82" edge="1">
                    <mxGeometry relative="1" as="geometry"/>
                </mxCell>
                <mxCell id="111" value="&lt;font style=&quot;background-color: rgb(255, 255, 255);&quot; color=&quot;#000000&quot;&gt;Tailscale VPN Tunnel&lt;/font&gt;" style="outlineConnect=0;dashed=0;verticalLabelPosition=bottom;verticalAlign=top;align=center;html=1;shape=mxgraph.aws3.vpn_gateway;rounded=0;labelBackgroundColor=#FFFFFF;fontSize=14;fillColor=#000000;" parent="108" vertex="1">
                    <mxGeometry x="-90" y="739" width="69" height="72" as="geometry"/>
                </mxCell>
                <mxCell id="113" style="edgeStyle=none;html=1;exitX=0.25;exitY=1;exitDx=0;exitDy=0;entryX=0.145;entryY=0.145;entryDx=0;entryDy=0;entryPerimeter=0;strokeColor=#000000;fontSize=14;fontColor=#000000;" parent="108" source="81" target="111" edge="1">
                    <mxGeometry relative="1" as="geometry"/>
                </mxCell>
                <mxCell id="137" style="edgeStyle=none;html=1;exitX=0;exitY=1;exitDx=0;exitDy=0;entryX=0.5;entryY=1;entryDx=0;entryDy=0;entryPerimeter=0;strokeColor=#000000;fontSize=14;fontColor=#000000;" edge="1" parent="108">
                    <mxGeometry relative="1" as="geometry">
                        <mxPoint x="454" y="900" as="sourcePoint"/>
                        <Array as="points">
                            <mxPoint x="-56" y="900"/>
                        </Array>
                        <mxPoint x="-55.5" y="810.9999999999998" as="targetPoint"/>
                    </mxGeometry>
                </mxCell>
                <mxCell id="138" style="edgeStyle=none;html=1;exitX=1;exitY=0.5;exitDx=0;exitDy=0;exitPerimeter=0;entryX=0;entryY=0.5;entryDx=0;entryDy=0;strokeColor=#000000;fontSize=14;fontColor=#000000;" edge="1" parent="108">
                    <mxGeometry relative="1" as="geometry">
                        <mxPoint x="454" y="775" as="targetPoint"/>
                        <mxPoint x="-21" y="775" as="sourcePoint"/>
                    </mxGeometry>
                </mxCell>
                <mxCell id="120" value="homelab descriptors" parent="0"/>
                <mxCell id="151" value="&lt;font style=&quot;background-color: rgb(156, 0, 0);&quot;&gt;Ansible Automation&lt;/font&gt;" style="swimlane;whiteSpace=wrap;html=1;labelBackgroundColor=#FFFFFF;fontColor=#ffffff;fillColor=#a20025;strokeColor=#6F0000;" vertex="1" parent="120">
                    <mxGeometry x="1084" y="930" width="330" height="200" as="geometry"/>
                </mxCell>
                <mxCell id="152" value="" style="rounded=0;whiteSpace=wrap;html=1;labelBackgroundColor=#9C0000;fontColor=#ffffff;strokeColor=#6F0000;fillColor=#a20025;" vertex="1" parent="151">
                    <mxGeometry y="23" width="330" height="177" as="geometry"/>
                </mxCell>
                <mxCell id="153" value="I maintain a git repository (https://github.com/redjax/ansible_homelab) with collections, roles, &amp;amp; playbooks to automate my infrastructure. There are plays for applying my &quot;base&quot; configuration to all machines, onboarding new machines (install an Ansible service user, set up SSH keys, common package installs &amp;amp; security settings, etc), provisioning hosts to run Docker Compose stacks, and more.&lt;br&gt;&lt;br&gt;The repository includes a noxfile.py, which includes sessions that can automate Ansible plays. For example, a play that targets a specific group of hosts, updates all packages, then reboots (if necessary)." style="text;html=1;strokeColor=none;fillColor=none;align=center;verticalAlign=middle;whiteSpace=wrap;rounded=0;labelBackgroundColor=#9C0000;fontColor=#FFFFFF;" vertex="1" parent="151">
                    <mxGeometry y="23" width="330" height="177" as="geometry"/>
                </mxCell>
                <mxCell id="154" style="edgeStyle=none;html=1;entryX=0.5;entryY=0;entryDx=0;entryDy=0;strokeColor=#000000;fontColor=#000000;" edge="1" parent="120" target="151">
                    <mxGeometry relative="1" as="geometry">
                        <mxPoint x="1249" y="851" as="sourcePoint"/>
                    </mxGeometry>
                </mxCell>
                <mxCell id="171" style="edgeStyle=none;html=1;entryX=0;entryY=0;entryDx=0;entryDy=0;strokeColor=#000000;fontColor=#FFFFFF;" edge="1" parent="120" target="174">
                    <mxGeometry relative="1" as="geometry">
                        <mxPoint x="1297.7800000000002" y="699.6359701492538" as="sourcePoint"/>
                    </mxGeometry>
                </mxCell>
                <mxCell id="172" value="&lt;span style=&quot;background-color: rgb(0, 80, 239);&quot;&gt;Unifi Controller&lt;/span&gt;" style="swimlane;whiteSpace=wrap;html=1;labelBackgroundColor=#FFFFFF;fontColor=#ffffff;fillColor=#0050EF;strokeColor=#001DBC;" vertex="1" parent="120">
                    <mxGeometry x="1382" y="674" width="200" height="141" as="geometry"/>
                </mxCell>
                <mxCell id="173" value="" style="rounded=0;whiteSpace=wrap;html=1;labelBackgroundColor=#0050EF;fontColor=#000000;fillColor=#0050EF;strokeColor=none;" vertex="1" parent="172">
                    <mxGeometry x="1" y="24" width="199" height="116" as="geometry"/>
                </mxCell>
                <mxCell id="174" value="&lt;font style=&quot;background-color: rgb(0, 80, 239);&quot; color=&quot;#ffffff&quot;&gt;Instead of purchasing a Unifi Cloud Key, I run the unifi-controller software in a Docker container. The container is watched by watchtower, so it is always up to date. I have a cron task regularly backing up the container data directory.&lt;/font&gt;" style="text;html=1;strokeColor=none;fillColor=none;align=center;verticalAlign=middle;whiteSpace=wrap;rounded=0;labelBackgroundColor=#0050EF;fontColor=#000000;" vertex="1" parent="172">
                    <mxGeometry x="1" y="25" width="199" height="115" as="geometry"/>
                </mxCell>
                <mxCell id="181" value="backup strategy" parent="0"/>
                <mxCell id="182" value="&lt;font color=&quot;#ffffff&quot;&gt;Backup Strategy&lt;/font&gt;" style="swimlane;whiteSpace=wrap;html=1;labelBackgroundColor=#6A00FF;fontColor=#000000;fillColor=#6A00FF;swimlaneFillColor=none;" vertex="1" parent="181">
                    <mxGeometry x="1220" y="140" width="840" height="330" as="geometry"/>
                </mxCell>
                <mxCell id="192" value="" style="group" vertex="1" connectable="0" parent="182">
                    <mxGeometry y="20" width="840" height="310" as="geometry"/>
                </mxCell>
                <mxCell id="185" value="" style="rounded=0;whiteSpace=wrap;html=1;labelBackgroundColor=#6A00FF;fontColor=#FFFFFF;fillColor=#6A00FF;swimlaneFillColor=none;" vertex="1" parent="192">
                    <mxGeometry width="840" height="310" as="geometry"/>
                </mxCell>
                <mxCell id="183" value="&lt;font color=&quot;#ffffff&quot; style=&quot;background-color: rgb(106, 0, 255);&quot;&gt;Wasabi S3&lt;/font&gt;" style="points=[[0,0,0],[0.25,0,0],[0.5,0,0],[0.75,0,0],[1,0,0],[0,1,0],[0.25,1,0],[0.5,1,0],[0.75,1,0],[1,1,0],[0,0.25,0],[0,0.5,0],[0,0.75,0],[1,0.25,0],[1,0.5,0],[1,0.75,0]];outlineConnect=0;fontColor=#232F3E;gradientColor=#60A337;gradientDirection=north;fillColor=#277116;strokeColor=#ffffff;dashed=0;verticalLabelPosition=bottom;verticalAlign=top;align=center;html=1;fontSize=12;fontStyle=0;aspect=fixed;shape=mxgraph.aws4.resourceIcon;resIcon=mxgraph.aws4.s3;labelBackgroundColor=#0050EF;swimlaneFillColor=none;" vertex="1" parent="192">
                    <mxGeometry x="37.92325056433408" y="152" width="73.95033860045147" height="73.95033860045147" as="geometry"/>
                </mxCell>
                <mxCell id="184" value="&lt;span style=&quot;background-color: rgb(106, 0, 255);&quot;&gt;Backblaze B2&lt;/span&gt;" style="points=[[0,0,0],[0.25,0,0],[0.5,0,0],[0.75,0,0],[1,0,0],[0,1,0],[0.25,1,0],[0.5,1,0],[0.75,1,0],[1,1,0],[0,0.25,0],[0,0.5,0],[0,0.75,0],[1,0.25,0],[1,0.5,0],[1,0.75,0]];outlineConnect=0;fontColor=#ffffff;gradientDirection=north;fillColor=#a20025;strokeColor=#FFFFFF;dashed=0;verticalLabelPosition=bottom;verticalAlign=top;align=center;html=1;fontSize=12;fontStyle=0;aspect=fixed;shape=mxgraph.aws4.resourceIcon;resIcon=mxgraph.aws4.s3;labelBackgroundColor=#0050EF;swimlaneFillColor=none;" vertex="1" parent="192">
                    <mxGeometry x="199.09706546275396" y="152" width="73.95033860045147" height="73.95033860045147" as="geometry"/>
                </mxCell>
                <mxCell id="186" value="I maintain backups of my most critical infrastructure using a couple of backup strategies. For my most critical hosts/containers, I use Kopia or Duplicati to schedule incremental backups. I have a local repository (an attached external disk, my NAS, or via SFTP to a disk on a local machine), and at least 1 offsite backup using Wasabi S3 or Backblaze b2 storage buckets, or pCloud.&lt;br&gt;I have had multiple failures over the years, and have successfully recovered critical data a number of times. For my most vital services like my Unifi controller Docker container, music sample library, and local scripts/containers/programs that are not synchronized to a git server, I regularly perform disaster recovery scenarios, copying data to a backup directory and restoring from an incremental." style="text;html=1;strokeColor=none;fillColor=none;align=center;verticalAlign=middle;whiteSpace=wrap;rounded=0;labelBackgroundColor=#6A00FF;sketch=0;fontColor=#FFFFFF;" vertex="1" parent="192">
                    <mxGeometry width="840" height="103" as="geometry"/>
                </mxCell>
                <mxCell id="187" value="" style="endArrow=none;html=1;strokeColor=#000000;fontColor=#FFFFFF;exitX=0;exitY=1;exitDx=0;exitDy=0;entryX=1.001;entryY=0.333;entryDx=0;entryDy=0;entryPerimeter=0;" edge="1" parent="192" source="186" target="185">
                    <mxGeometry width="50" height="50" relative="1" as="geometry">
                        <mxPoint x="398.1941309255079" y="270" as="sourcePoint"/>
                        <mxPoint x="840" y="103" as="targetPoint"/>
                    </mxGeometry>
                </mxCell>
                <mxCell id="188" value="pCloud Drive" style="shadow=0;dashed=0;html=1;strokeColor=none;fillColor=#4495D1;labelPosition=center;verticalLabelPosition=bottom;verticalAlign=top;align=center;outlineConnect=0;shape=mxgraph.veeam.2d.hard_drive;labelBackgroundColor=#6A00FF;sketch=0;fontColor=#FFFFFF;" vertex="1" parent="192">
                    <mxGeometry x="341.3092550790068" y="151" width="75.84650112866817" height="80" as="geometry"/>
                </mxCell>
                <mxCell id="189" value="Local drive via SFTP" style="sketch=0;shadow=0;dashed=0;html=1;labelPosition=center;verticalLabelPosition=bottom;verticalAlign=top;align=center;outlineConnect=0;shape=mxgraph.veeam.3d.hard_drive;fillColor=#637D8A;gradientColor=#324752;strokeColor=none;labelBackgroundColor=#6A00FF;fontColor=#FFFFFF;" vertex="1" parent="192">
                    <mxGeometry x="502.4830699774266" y="148.75" width="94.80812641083521" height="80" as="geometry"/>
                </mxCell>
                <mxCell id="190" value="NAS" style="sketch=0;pointerEvents=1;shadow=0;dashed=0;html=1;strokeColor=none;fillColor=#005F4B;labelPosition=center;verticalLabelPosition=bottom;verticalAlign=top;align=center;outlineConnect=0;shape=mxgraph.veeam2.nas;labelBackgroundColor=#6A00FF;fontColor=#FFFFFF;" vertex="1" parent="192">
                    <mxGeometry x="663.6568848758465" y="150" width="94.80812641083521" height="77.5" as="geometry"/>
                </mxCell>
            </root>
        </mxGraphModel>
    </diagram>
</mxfile>